<?xml version="1.0" encoding="UTF-8"?> <svg xmlns="http://www.w3.org/2000/svg" viewBox="0 0 100 100"><defs><style>.cls-1{fill:#ff4000;}.cls-2{fill:#fff;fill-rule:evenodd;}.cls-3{fill:none;}</style></defs><title>ourpact-web-filter_1</title><g id="Layer_2" data-name="Layer 2"><g id="Layer_1-2" data-name="Layer 1"><circle class="cls-1" cx="50" cy="50" r="49.5"></circle><path class="cls-2" d="M59,79.77a46.81,46.81,0,0,0,6.73-15.32H77.17A30.67,30.67,0,0,1,59,79.77M48.91,81.09a38,38,0,0,1-9.07-16.64H60.7a38,38,0,0,1-9,16.59c-.6,0-1.2.1-1.81.1-.31,0-.63,0-1,0M22.63,64.45H34.85A46.78,46.78,0,0,0,41.74,80,30.85,30.85,0,0,1,22.63,64.45M41.82,21a46.42,46.42,0,0,0-7,15.77H22.5A30.65,30.65,0,0,1,41.88,21Zm9.68-1a37.81,37.81,0,0,1,9.22,16.77H39.83A37.74,37.74,0,0,1,49.08,20h.79A11,11,0,0,1,51.5,20M38,50.63a53.79,53.79,0,0,1,.76-9h23a54,54,0,0,1,0,17.95h-23a53.79,53.79,0,0,1-.76-9M19.2,50.47a30.24,30.24,0,0,1,1.32-8.81H33.88a57.6,57.6,0,0,0,0,17.95H20.61a30.42,30.42,0,0,1-1.4-9.14m61.34.16a30.29,30.29,0,0,1-1.29,9H66.68a58.29,58.29,0,0,0,0-17.95H79.25a30.38,30.38,0,0,1,1.29,9M77.2,36.82H65.71a46.64,46.64,0,0,0-6.86-15.5A30.87,30.87,0,0,1,77.2,36.82M49.87,14.06A36.42,36.42,0,1,0,86.29,50.47,36.42,36.42,0,0,0,49.87,14.06"></path><rect class="cls-3" width="100" height="100"></rect></g></g></svg> 